<svg xmlns="http://www.w3.org/2000/svg" height="511pt" version="1.1" viewBox="-90 1 511 511.99999" width="511pt">
<g id="surface1">
<path d="M 272.777344 106.90625 L 272.777344 218.890625 L 188.226562 218.75 L 188.226562 105.855469 C 188.226562 93.640625 178.40625 83.679688 166.25 83.441406 C 166.101562 83.429688 165.949219 83.429688 165.800781 83.429688 C 153.4375 83.429688 143.375 93.492188 143.375 105.855469 L 143.375 218.75 L 58.964844 218.890625 L 58.964844 106.90625 C 58.964844 47.960938 106.925781 0 165.871094 0 L 166.25 0 C 225.035156 0.210938 272.777344 48.09375 272.777344 106.90625 Z M 272.777344 106.90625 " style=" stroke:none;fill-rule:nonzero;fill:rgb(41.176471%,43.137255%,45.098039%);fill-opacity:1;" />
<path d="M 272.777344 106.90625 L 272.777344 218.890625 L 188.226562 218.75 L 188.226562 105.855469 C 188.226562 93.640625 178.40625 83.679688 166.25 83.441406 L 166.25 0 C 225.035156 0.210938 272.777344 48.09375 272.777344 106.90625 Z M 272.777344 106.90625 " style=" stroke:none;fill-rule:nonzero;fill:rgb(21.568627%,23.529412%,25.490196%);fill-opacity:1;" />
<path d="M 331.101562 225.367188 L 331.101562 490.507812 C 331.101562 502.359375 321.460938 512 309.609375 512 L 21.992188 512 C 10.140625 512 0.5 502.359375 0.5 490.507812 L 0.5 225.367188 C 0.5 213.511719 10.140625 203.871094 21.992188 203.871094 L 309.609375 203.871094 C 321.460938 203.871094 331.101562 213.511719 331.101562 225.367188 Z M 331.101562 225.367188 " style=" stroke:none;fill-rule:nonzero;fill:rgb(0%,86.666667%,50.196078%);fill-opacity:1;" />
<path d="M 331.101562 225.367188 L 331.101562 490.507812 C 331.101562 502.359375 321.460938 512 309.609375 512 L 166.25 512 L 166.25 203.871094 L 309.609375 203.871094 C 321.460938 203.871094 331.101562 213.511719 331.101562 225.367188 Z M 331.101562 225.367188 " style=" stroke:none;fill-rule:nonzero;fill:rgb(0%,66.666667%,38.823529%);fill-opacity:1;" />
<path d="M 260.496094 307.9375 L 166.25 402.179688 L 139.480469 428.949219 C 136.546875 431.882812 132.714844 433.355469 128.871094 433.355469 C 125.027344 433.355469 121.183594 431.882812 118.25 428.949219 L 72.007812 382.707031 C 66.140625 376.84375 66.140625 367.332031 72.007812 361.476562 C 77.863281 355.609375 87.375 355.609375 93.242188 361.476562 L 128.871094 397.09375 L 239.261719 286.703125 C 245.128906 280.835938 254.636719 280.835938 260.496094 286.703125 C 266.359375 292.570312 266.359375 302.070312 260.496094 307.9375 Z M 260.496094 307.9375 " style=" stroke:none;fill-rule:nonzero;fill:rgb(100%,100%,100%);fill-opacity:1;" />
<path d="M 260.496094 307.9375 L 166.25 402.179688 L 166.25 359.714844 L 239.261719 286.703125 C 245.128906 280.835938 254.636719 280.835938 260.496094 286.703125 C 266.359375 292.570312 266.359375 302.070312 260.496094 307.9375 Z M 260.496094 307.9375 " style=" stroke:none;fill-rule:nonzero;fill:rgb(88.235294%,92.156863%,94.117647%);fill-opacity:1;" />
</g>
</svg>